<svg xmlns="http://www.w3.org/2000/svg" width="1024" height="1024" viewBox="0 0 1024 1024" version="1.1"><path d="M 490.500 228.226 C 428.392 231.455, 367.204 255.651, 316.645 296.974 C 299.688 310.833, 278.053 334.023, 263.444 354 C 250.128 372.208, 235.301 399.030, 227.512 419 C 215.940 448.669, 211.332 469.231, 208.353 504.499 C 205.756 535.236, 208.098 565.014, 215.509 595.500 C 228.264 647.970, 255.288 695.378, 295.028 735 C 305.338 745.279, 319.077 756.879, 329.952 764.485 C 351.477 779.541, 357.893 783.475, 374.500 791.805 C 406.265 807.738, 440.420 817.508, 478.500 821.552 C 497.502 823.570, 531.183 823.110, 548 820.602 C 578.004 816.129, 604.197 808.816, 625.500 798.966 C 626.600 798.457, 628.800 797.569, 630.389 796.993 C 631.977 796.416, 633.029 795.695, 632.724 795.391 C 632.420 795.087, 631.345 795.279, 630.336 795.818 C 627.044 797.577, 604.141 804.929, 593.757 807.562 C 524.502 825.117, 452.069 817.993, 388.156 787.341 C 312.632 751.121, 261.210 688.421, 238.613 605 C 234.988 591.619, 231.084 569.612, 229.831 555.500 C 227.787 532.488, 229.968 494.997, 234.426 476.500 C 234.691 475.400, 235.863 470.225, 237.031 465 C 239.742 452.871, 246.981 431.347, 252.670 418.500 C 266.167 388.021, 287.173 357.516, 310.895 333.943 C 366.882 278.309, 438.765 246.572, 515.500 243.606 C 527.237 243.152, 549.266 244.059, 561 245.478 C 563.843 245.822, 564.948 245.696, 564 245.135 C 561.583 243.705, 535.454 240.985, 523.500 240.920 C 516.864 240.883, 513.293 240.539, 514.500 240.051 C 517.825 238.707, 535.548 238.901, 552.445 240.466 C 561.215 241.278, 568.530 241.803, 568.700 241.634 C 569.363 240.971, 547.839 237.949, 535.696 237 C 473.456 232.137, 412.570 246.972, 355.675 280.861 C 345.294 287.044, 322.145 303.306, 320 305.922 C 319.725 306.258, 317.925 307.806, 316 309.362 C 311.777 312.776, 297.952 326.207, 288.953 335.638 C 275.256 349.992, 259.606 370.814, 249.075 388.695 C 241.996 400.715, 241.209 399.271, 247.879 386.500 C 275.036 334.496, 321.355 289.983, 377 262.414 C 394.215 253.884, 405.079 249.537, 422.557 244.182 C 476.347 227.703, 532.624 225.717, 583.234 238.511 C 588.649 239.880, 593.850 240.986, 594.790 240.970 C 601.091 240.858, 578.867 235.103, 560.441 232.076 C 542.823 229.182, 542.637 229.161, 529.041 228.492 C 508.589 227.487, 505.162 227.463, 490.500 228.226 M 597 241.411 C 597 241.637, 600.938 243.056, 605.750 244.564 C 610.563 246.072, 614.950 247.625, 615.500 248.015 C 616.050 248.405, 617.850 249.017, 619.500 249.376 C 624.496 250.461, 620.133 248.324, 609.483 244.469 C 600.631 241.264, 597 240.375, 597 241.411 M 628.525 360.975 C 624.689 364.903, 624.666 364.973, 626.528 367.030 C 628.132 368.803, 628.220 369.417, 627.124 371.173 C 624.419 375.504, 612.021 401.021, 607.044 412.500 C 604.183 419.100, 600.925 425.485, 599.805 426.688 C 598.685 427.891, 594.558 429.810, 590.634 430.952 C 566.792 437.893, 561.599 439.698, 560.505 441.428 C 558.689 444.298, 561.264 446.408, 568.106 447.656 C 578.732 449.594, 586.135 451.707, 587.664 453.236 C 589.395 454.966, 589.349 455.095, 576.528 484.500 C 571.732 495.500, 564.450 512.761, 560.346 522.857 C 553.235 540.351, 552.964 541.303, 554.597 543.107 C 557.889 546.745, 560.214 544.980, 563.956 536 C 565.217 532.975, 567.052 528.700, 568.034 526.500 C 569.017 524.300, 572.948 515.300, 576.771 506.500 C 599.120 455.053, 598.022 456.811, 605.272 460.862 C 617.575 467.735, 643.305 486.070, 661.380 500.845 C 666.194 504.780, 670.328 508, 670.566 508 C 672.553 508, 668.873 504.343, 655.750 493.275 C 633.983 474.916, 623.508 467.200, 604.244 455.335 L 601.987 453.945 604.130 449.723 C 611.951 434.314, 617.458 430.740, 641.500 425.472 C 656.811 422.116, 676.383 412.707, 686.394 403.888 C 691.709 399.205, 695.974 391.426, 695.990 386.385 C 696.002 382.762, 693.041 378.590, 688.961 376.480 C 681.286 372.511, 666.651 376.938, 651.500 387.812 C 644.744 392.661, 629.263 407.760, 621.317 417.250 C 615.253 424.492, 612 426.747, 612 423.707 C 612 422.607, 624.797 393.310, 633.930 373.500 C 638.820 362.895, 639.526 360.338, 638.055 358.566 C 635.885 355.951, 632.626 356.775, 628.525 360.975 M 457 370.049 C 455.625 370.508, 451.350 371.857, 447.500 373.047 C 432.460 377.693, 418.732 385.944, 405.308 398.404 C 385.906 416.414, 387.926 435.026, 409.471 436.748 C 415.395 437.221, 428.972 434.528, 441 430.493 L 445.500 428.983 439.500 429.563 C 436.200 429.881, 429.729 430.785, 425.119 431.571 C 411.041 433.971, 405.530 433.031, 401.168 427.486 C 397.986 423.441, 398.449 421.098, 403.993 413.203 C 413.556 399.586, 426.207 388.902, 441.451 381.568 C 454.481 375.300, 459.458 373.848, 467.774 373.891 C 484.390 373.977, 489.530 382.344, 483.367 399.269 C 479.403 410.152, 479.232 412.693, 482.364 414.120 C 485.989 415.772, 487.563 414.154, 489.997 406.275 C 495.028 389.987, 490.392 376.109, 478.167 370.860 C 473.576 368.889, 461.817 368.438, 457 370.049 M 672.500 380.371 C 658.340 385.507, 646.659 394.934, 628.971 415.500 C 623.752 421.568, 624.609 422.026, 635.745 419.123 C 653.690 414.443, 657.057 413.255, 669.302 407.278 C 683.281 400.456, 693.307 389.567, 691.058 383.652 C 688.818 377.761, 682.683 376.677, 672.500 380.371 M 449.618 428.447 C 450.866 431.699, 448.746 432.983, 425.500 443.058 C 408.799 450.296, 394.549 459.297, 387.983 466.757 C 374.997 481.509, 376.599 498.407, 391.658 505.531 C 396.775 507.952, 398.414 508.210, 408.415 508.171 C 417.526 508.135, 420.877 507.674, 427.233 505.579 C 444.103 500.021, 465.036 488.507, 479.657 476.745 C 490.058 468.377, 508 451.056, 508 449.381 C 508 446.904, 506.297 447.907, 500.854 453.588 C 486.015 469.077, 464.832 485.044, 447.712 493.647 C 435.739 499.663, 429.917 501.612, 417.970 503.602 C 408.875 505.117, 407.621 505.116, 400.746 503.587 C 394.717 502.246, 392.693 501.278, 389.916 498.411 C 386.764 495.157, 386.501 494.401, 386.516 488.644 C 386.530 483.290, 387.007 481.665, 389.872 477.200 C 396.491 466.885, 407.387 458.964, 432.660 446.095 C 451.002 436.756, 457.144 432.228, 455.399 429.329 C 453.965 426.946, 448.736 426.149, 449.618 428.447 M 586.500 438.924 C 579.723 440.416, 574 442.284, 574 443.004 C 574 444.242, 583.534 447, 587.815 447 C 592.242 447, 593.460 445.946, 594.464 441.250 C 595.123 438.167, 595.014 438.007, 592.329 438.132 C 590.773 438.204, 588.150 438.561, 586.500 438.924 M 370.239 601.250 C 368.617 605.788, 366.212 612.592, 364.895 616.372 C 363.263 621.055, 361.793 623.570, 360.281 624.268 C 357.021 625.773, 358.493 627, 363.559 627 C 368.124 627, 369.049 626.115, 366.605 624.087 C 365.504 623.173, 365.434 622.197, 366.272 619.464 C 367.313 616.073, 367.448 616, 372.719 616 C 377.939 616, 378.147 616.108, 379.583 619.544 C 381.165 623.332, 380.798 625, 378.382 625 C 377.557 625, 377.160 625.450, 377.500 626 C 378.279 627.261, 389.682 627.324, 390.456 626.071 C 390.771 625.561, 390.014 624.998, 388.773 624.821 C 386.853 624.548, 385.876 622.642, 382.206 612 C 377.027 596.981, 375.331 593, 374.111 593 C 373.604 593, 371.862 596.712, 370.239 601.250 M 300.544 594.929 C 300.229 595.439, 300.990 596.002, 302.235 596.179 C 304.465 596.495, 304.500 596.716, 304.500 610.500 C 304.500 624.284, 304.465 624.505, 302.235 624.821 C 300.990 624.998, 300.229 625.561, 300.544 626.071 C 301.219 627.163, 325.986 627.312, 327.603 626.235 C 329.096 625.240, 330.401 615, 329.034 615 C 328.465 615, 328 615.654, 328 616.453 C 328 622.091, 323.155 625.303, 315.396 624.811 L 310.500 624.500 310.500 618 C 310.500 611.678, 310.574 611.491, 313.207 611.188 C 314.985 610.983, 316.519 611.583, 317.679 612.938 C 320.301 616.001, 321 615.488, 321 610.500 C 321 605.512, 320.301 604.999, 317.679 608.062 C 316.519 609.417, 314.985 610.017, 313.207 609.812 C 310.574 609.509, 310.500 609.322, 310.500 603 L 310.500 596.500 315.841 596.195 C 322.247 595.828, 325.536 597.610, 326.493 601.966 C 326.859 603.635, 327.601 605, 328.141 605 C 329.456 605, 328.070 595.730, 326.611 594.765 C 324.982 593.688, 301.219 593.837, 300.544 594.929 M 424.775 595.559 C 416.780 599.898, 418.978 609.187, 428.628 611.839 C 431.308 612.576, 434.066 613.351, 434.759 613.561 C 435.451 613.772, 436.542 615.095, 437.182 616.501 C 438.164 618.656, 438.030 619.485, 436.325 621.779 C 433.493 625.589, 429.169 625.854, 425.140 622.464 C 423.413 621.011, 422 618.962, 422 617.911 C 422 616.860, 421.550 616, 421 616 C 420.450 616, 420 618.148, 420 620.773 L 420 625.545 424.250 625.825 C 435.044 626.535, 435.914 626.429, 438.386 624.107 C 441.624 621.066, 442.340 617.750, 440.640 613.681 C 439.231 610.308, 434.122 607, 430.321 607 C 425.029 607, 422.141 600.992, 425.829 597.655 C 429.385 594.437, 435.341 596.534, 437.193 601.657 C 438.918 606.428, 440 605.790, 440 600 C 440 595.345, 438.947 593.658, 437.502 595.996 C 437.114 596.625, 435.818 596.440, 433.993 595.496 C 430.411 593.644, 428.277 593.659, 424.775 595.559 M 471.570 594.886 C 471.269 595.374, 471.917 596.007, 473.011 596.293 C 474.874 596.780, 475 597.680, 475 610.500 C 475 623.320, 474.874 624.220, 473.011 624.707 C 471.917 624.993, 471.269 625.626, 471.570 626.114 C 472.234 627.187, 496.011 627.281, 497.685 626.216 C 499.219 625.240, 500.639 615, 499.240 615 C 498.680 615, 497.927 616.574, 497.566 618.498 C 496.700 623.116, 492.761 625.209, 485.702 624.801 L 480.500 624.500 480.500 618 C 480.500 611.688, 480.578 611.491, 483.189 611.189 C 484.890 610.993, 486.636 611.636, 487.939 612.939 C 489.073 614.073, 490.225 615, 490.500 615 C 490.775 615, 491 612.975, 491 610.500 C 491 608.025, 490.775 606, 490.500 606 C 490.225 606, 489.073 606.927, 487.939 608.061 C 486.636 609.364, 484.890 610.007, 483.189 609.811 C 480.578 609.509, 480.500 609.312, 480.500 603 L 480.500 596.500 486.246 596.200 C 491.262 595.939, 492.309 596.219, 494.496 598.405 C 495.873 599.782, 497 601.830, 497 602.955 C 497 604.080, 497.501 605, 498.114 605 C 499.573 605, 498.257 595.789, 496.652 594.765 C 495.004 593.714, 472.227 593.824, 471.570 594.886 M 529 594.883 C 529 595.369, 529.900 596.002, 531 596.290 C 532.877 596.781, 533 597.654, 533 610.500 C 533 623.346, 532.877 624.219, 531 624.710 C 526.875 625.789, 529.224 627, 535.441 627 C 541.665 627, 545.386 625.477, 540.765 624.821 C 538.677 624.525, 538.500 623.992, 538.500 618 C 538.500 611.504, 538.502 611.500, 541.512 611.204 C 545.791 610.784, 548.996 614.024, 549.015 618.789 C 549.034 623.401, 549.765 624.580, 553.481 625.993 C 557.028 627.341, 560.548 626.619, 561.413 624.366 C 562.332 621.970, 561.055 621.204, 559.558 623.252 C 557.026 626.714, 555.604 624.932, 553.570 615.746 C 553.234 614.231, 552.118 612.466, 551.088 611.823 C 549.338 610.730, 549.420 610.518, 552.359 608.545 C 558.115 604.680, 556.670 598.489, 549.282 595.362 C 545.710 593.850, 529 593.456, 529 594.883 M 588.544 594.929 C 588.229 595.439, 588.990 596.002, 590.235 596.179 C 592.465 596.495, 592.500 596.716, 592.500 610.500 C 592.500 624.284, 592.465 624.505, 590.235 624.821 C 588.990 624.998, 588.229 625.561, 588.544 626.071 C 589.219 627.163, 613.986 627.312, 615.603 626.235 C 617.096 625.240, 618.401 615, 617.034 615 C 616.465 615, 616 615.654, 616 616.453 C 616 622.091, 611.155 625.303, 603.396 624.811 L 598.500 624.500 598.500 618 C 598.500 611.678, 598.574 611.491, 601.207 611.188 C 602.985 610.983, 604.519 611.583, 605.679 612.938 C 608.301 616.001, 609 615.488, 609 610.500 C 609 605.512, 608.301 604.999, 605.679 608.062 C 604.519 609.417, 602.985 610.017, 601.207 609.812 C 598.574 609.509, 598.500 609.322, 598.500 603 L 598.500 596.500 603.841 596.195 C 610.247 595.828, 613.536 597.610, 614.493 601.966 C 614.859 603.635, 615.601 605, 616.141 605 C 617.456 605, 616.070 595.730, 614.611 594.765 C 612.982 593.688, 589.219 593.837, 588.544 594.929 M 646.544 594.929 C 646.229 595.439, 646.990 596.002, 648.235 596.179 C 650.460 596.494, 650.500 596.736, 650.500 609.970 C 650.500 622.930, 650.415 623.483, 648.256 624.560 C 645.226 626.070, 646.463 627, 651.500 627 C 656.551 627, 657.651 626.145, 654.994 624.283 C 653.209 623.033, 653 621.741, 653 611.943 C 653 605.487, 653.401 601, 653.977 601 C 654.514 601, 655.747 602.237, 656.717 603.750 C 662.083 612.117, 672.271 626, 673.046 626 C 673.540 626, 674.070 619.600, 674.223 611.778 C 674.488 598.174, 674.597 597.508, 676.744 596.439 C 679.862 594.886, 678.502 594, 673 594 C 667.499 594, 666.137 594.887, 669.256 596.438 C 671.331 597.470, 671.517 598.306, 671.730 607.527 C 671.992 618.926, 672.840 619.171, 663.009 605 C 659.765 600.325, 656.619 595.938, 656.016 595.250 C 654.748 593.802, 647.394 593.553, 646.544 594.929 M 708.200 595.200 C 706.754 596.646, 706.583 605, 708 605 C 708.550 605, 709 603.875, 709 602.500 C 709 598.800, 712.455 595.818, 716.309 596.191 L 719.500 596.500 719.500 610.500 L 719.500 624.500 716.231 624.815 C 709.791 625.435, 714.281 627, 722.500 627 C 730.719 627, 735.209 625.435, 728.769 624.815 L 725.500 624.500 725.500 610.500 L 725.500 596.500 728.691 596.191 C 732.545 595.818, 736 598.800, 736 602.500 C 736 603.875, 736.450 605, 737 605 C 738.417 605, 738.246 596.646, 736.800 595.200 C 735.989 594.389, 731.356 594, 722.500 594 C 713.644 594, 709.011 594.389, 708.200 595.200 M 538.412 597.369 C 538.123 598.122, 538.024 601.160, 538.193 604.119 C 538.478 609.123, 538.688 609.522, 541.184 609.810 C 542.660 609.981, 545.247 609.406, 546.934 608.534 C 549.564 607.174, 550 606.391, 550 603.031 C 550 600.116, 549.431 598.715, 547.777 597.557 C 545.022 595.626, 539.126 595.508, 538.412 597.369 M 370.240 608 L 368.081 614 372.944 614 L 377.808 614 375.828 608.750 C 374.739 605.862, 373.522 603.162, 373.124 602.750 C 372.725 602.337, 371.428 604.699, 370.240 608" stroke="none" fill="#c7ad67" fill-rule="evenodd"/><path d="M 0 512.001 L 0 1024.002 512.250 1023.751 L 1024.500 1023.500 1024.751 511.750 L 1025.002 0 512.501 0 L 0 0 0 512.001 M 0.496 512.500 C 0.496 794.100, 0.610 909.151, 0.750 768.168 C 0.890 627.186, 0.890 396.786, 0.750 256.168 C 0.610 115.551, 0.496 230.900, 0.496 512.500 M 490.500 228.226 C 428.392 231.455, 367.204 255.651, 316.645 296.974 C 299.688 310.833, 278.053 334.023, 263.444 354 C 250.128 372.208, 235.301 399.030, 227.512 419 C 215.940 448.669, 211.332 469.231, 208.353 504.499 C 205.756 535.236, 208.098 565.014, 215.509 595.500 C 228.264 647.970, 255.288 695.378, 295.028 735 C 305.338 745.279, 319.077 756.879, 329.952 764.485 C 351.477 779.541, 357.893 783.475, 374.500 791.805 C 406.265 807.738, 440.420 817.508, 478.500 821.552 C 497.502 823.570, 531.183 823.110, 548 820.602 C 578.004 816.129, 604.197 808.816, 625.500 798.966 C 626.600 798.457, 628.800 797.569, 630.389 796.993 C 631.977 796.416, 633.029 795.695, 632.724 795.391 C 632.420 795.087, 631.345 795.279, 630.336 795.818 C 627.044 797.577, 604.141 804.929, 593.757 807.562 C 524.502 825.117, 452.069 817.993, 388.156 787.341 C 312.632 751.121, 261.210 688.421, 238.613 605 C 234.988 591.619, 231.084 569.612, 229.831 555.500 C 227.787 532.488, 229.968 494.997, 234.426 476.500 C 234.691 475.400, 235.863 470.225, 237.031 465 C 239.742 452.871, 246.981 431.347, 252.670 418.500 C 266.167 388.021, 287.173 357.516, 310.895 333.943 C 366.882 278.309, 438.765 246.572, 515.500 243.606 C 527.237 243.152, 549.266 244.059, 561 245.478 C 563.843 245.822, 564.948 245.696, 564 245.135 C 561.583 243.705, 535.454 240.985, 523.500 240.920 C 516.864 240.883, 513.293 240.539, 514.500 240.051 C 517.825 238.707, 535.548 238.901, 552.445 240.466 C 561.215 241.278, 568.530 241.803, 568.700 241.634 C 569.363 240.971, 547.839 237.949, 535.696 237 C 473.456 232.137, 412.570 246.972, 355.675 280.861 C 345.294 287.044, 322.145 303.306, 320 305.922 C 319.725 306.258, 317.925 307.806, 316 309.362 C 311.777 312.776, 297.952 326.207, 288.953 335.638 C 275.256 349.992, 259.606 370.814, 249.075 388.695 C 241.996 400.715, 241.209 399.271, 247.879 386.500 C 275.036 334.496, 321.355 289.983, 377 262.414 C 394.215 253.884, 405.079 249.537, 422.557 244.182 C 476.347 227.703, 532.624 225.717, 583.234 238.511 C 588.649 239.880, 593.850 240.986, 594.790 240.970 C 601.091 240.858, 578.867 235.103, 560.441 232.076 C 542.823 229.182, 542.637 229.161, 529.041 228.492 C 508.589 227.487, 505.162 227.463, 490.500 228.226 M 597 241.411 C 597 241.637, 600.938 243.056, 605.750 244.564 C 610.563 246.072, 614.950 247.625, 615.500 248.015 C 616.050 248.405, 617.850 249.017, 619.500 249.376 C 624.496 250.461, 620.133 248.324, 609.483 244.469 C 600.631 241.264, 597 240.375, 597 241.411 M 628.525 360.975 C 624.689 364.903, 624.666 364.973, 626.528 367.030 C 628.132 368.803, 628.220 369.417, 627.124 371.173 C 624.419 375.504, 612.021 401.021, 607.044 412.500 C 604.183 419.100, 600.925 425.485, 599.805 426.688 C 598.685 427.891, 594.558 429.810, 590.634 430.952 C 566.792 437.893, 561.599 439.698, 560.505 441.428 C 558.689 444.298, 561.264 446.408, 568.106 447.656 C 578.732 449.594, 586.135 451.707, 587.664 453.236 C 589.395 454.966, 589.349 455.095, 576.528 484.500 C 571.732 495.500, 564.450 512.761, 560.346 522.857 C 553.235 540.351, 552.964 541.303, 554.597 543.107 C 557.889 546.745, 560.214 544.980, 563.956 536 C 565.217 532.975, 567.052 528.700, 568.034 526.500 C 569.017 524.300, 572.948 515.300, 576.771 506.500 C 599.120 455.053, 598.022 456.811, 605.272 460.862 C 617.575 467.735, 643.305 486.070, 661.380 500.845 C 666.194 504.780, 670.328 508, 670.566 508 C 672.553 508, 668.873 504.343, 655.750 493.275 C 633.983 474.916, 623.508 467.200, 604.244 455.335 L 601.987 453.945 604.130 449.723 C 611.951 434.314, 617.458 430.740, 641.500 425.472 C 656.811 422.116, 676.383 412.707, 686.394 403.888 C 691.709 399.205, 695.974 391.426, 695.990 386.385 C 696.002 382.762, 693.041 378.590, 688.961 376.480 C 681.286 372.511, 666.651 376.938, 651.500 387.812 C 644.744 392.661, 629.263 407.760, 621.317 417.250 C 615.253 424.492, 612 426.747, 612 423.707 C 612 422.607, 624.797 393.310, 633.930 373.500 C 638.820 362.895, 639.526 360.338, 638.055 358.566 C 635.885 355.951, 632.626 356.775, 628.525 360.975 M 457 370.049 C 455.625 370.508, 451.350 371.857, 447.500 373.047 C 432.460 377.693, 418.732 385.944, 405.308 398.404 C 385.906 416.414, 387.926 435.026, 409.471 436.748 C 415.395 437.221, 428.972 434.528, 441 430.493 L 445.500 428.983 439.500 429.563 C 436.200 429.881, 429.729 430.785, 425.119 431.571 C 411.041 433.971, 405.530 433.031, 401.168 427.486 C 397.986 423.441, 398.449 421.098, 403.993 413.203 C 413.556 399.586, 426.207 388.902, 441.451 381.568 C 454.481 375.300, 459.458 373.848, 467.774 373.891 C 484.390 373.977, 489.530 382.344, 483.367 399.269 C 479.403 410.152, 479.232 412.693, 482.364 414.120 C 485.989 415.772, 487.563 414.154, 489.997 406.275 C 495.028 389.987, 490.392 376.109, 478.167 370.860 C 473.576 368.889, 461.817 368.438, 457 370.049 M 672.500 380.371 C 658.340 385.507, 646.659 394.934, 628.971 415.500 C 623.752 421.568, 624.609 422.026, 635.745 419.123 C 653.690 414.443, 657.057 413.255, 669.302 407.278 C 683.281 400.456, 693.307 389.567, 691.058 383.652 C 688.818 377.761, 682.683 376.677, 672.500 380.371 M 449.618 428.447 C 450.866 431.699, 448.746 432.983, 425.500 443.058 C 408.799 450.296, 394.549 459.297, 387.983 466.757 C 374.997 481.509, 376.599 498.407, 391.658 505.531 C 396.775 507.952, 398.414 508.210, 408.415 508.171 C 417.526 508.135, 420.877 507.674, 427.233 505.579 C 444.103 500.021, 465.036 488.507, 479.657 476.745 C 490.058 468.377, 508 451.056, 508 449.381 C 508 446.904, 506.297 447.907, 500.854 453.588 C 486.015 469.077, 464.832 485.044, 447.712 493.647 C 435.739 499.663, 429.917 501.612, 417.970 503.602 C 408.875 505.117, 407.621 505.116, 400.746 503.587 C 394.717 502.246, 392.693 501.278, 389.916 498.411 C 386.764 495.157, 386.501 494.401, 386.516 488.644 C 386.530 483.290, 387.007 481.665, 389.872 477.200 C 396.491 466.885, 407.387 458.964, 432.660 446.095 C 451.002 436.756, 457.144 432.228, 455.399 429.329 C 453.965 426.946, 448.736 426.149, 449.618 428.447 M 586.500 438.924 C 579.723 440.416, 574 442.284, 574 443.004 C 574 444.242, 583.534 447, 587.815 447 C 592.242 447, 593.460 445.946, 594.464 441.250 C 595.123 438.167, 595.014 438.007, 592.329 438.132 C 590.773 438.204, 588.150 438.561, 586.500 438.924 M 370.239 601.250 C 368.617 605.788, 366.212 612.592, 364.895 616.372 C 363.263 621.055, 361.793 623.570, 360.281 624.268 C 357.021 625.773, 358.493 627, 363.559 627 C 368.124 627, 369.049 626.115, 366.605 624.087 C 365.504 623.173, 365.434 622.197, 366.272 619.464 C 367.313 616.073, 367.448 616, 372.719 616 C 377.939 616, 378.147 616.108, 379.583 619.544 C 381.165 623.332, 380.798 625, 378.382 625 C 377.557 625, 377.160 625.450, 377.500 626 C 378.279 627.261, 389.682 627.324, 390.456 626.071 C 390.771 625.561, 390.014 624.998, 388.773 624.821 C 386.853 624.548, 385.876 622.642, 382.206 612 C 377.027 596.981, 375.331 593, 374.111 593 C 373.604 593, 371.862 596.712, 370.239 601.250 M 300.544 594.929 C 300.229 595.439, 300.990 596.002, 302.235 596.179 C 304.465 596.495, 304.500 596.716, 304.500 610.500 C 304.500 624.284, 304.465 624.505, 302.235 624.821 C 300.990 624.998, 300.229 625.561, 300.544 626.071 C 301.219 627.163, 325.986 627.312, 327.603 626.235 C 329.096 625.240, 330.401 615, 329.034 615 C 328.465 615, 328 615.654, 328 616.453 C 328 622.091, 323.155 625.303, 315.396 624.811 L 310.500 624.500 310.500 618 C 310.500 611.678, 310.574 611.491, 313.207 611.188 C 314.985 610.983, 316.519 611.583, 317.679 612.938 C 320.301 616.001, 321 615.488, 321 610.500 C 321 605.512, 320.301 604.999, 317.679 608.062 C 316.519 609.417, 314.985 610.017, 313.207 609.812 C 310.574 609.509, 310.500 609.322, 310.500 603 L 310.500 596.500 315.841 596.195 C 322.247 595.828, 325.536 597.610, 326.493 601.966 C 326.859 603.635, 327.601 605, 328.141 605 C 329.456 605, 328.070 595.730, 326.611 594.765 C 324.982 593.688, 301.219 593.837, 300.544 594.929 M 424.775 595.559 C 416.780 599.898, 418.978 609.187, 428.628 611.839 C 431.308 612.576, 434.066 613.351, 434.759 613.561 C 435.451 613.772, 436.542 615.095, 437.182 616.501 C 438.164 618.656, 438.030 619.485, 436.325 621.779 C 433.493 625.589, 429.169 625.854, 425.140 622.464 C 423.413 621.011, 422 618.962, 422 617.911 C 422 616.860, 421.550 616, 421 616 C 420.450 616, 420 618.148, 420 620.773 L 420 625.545 424.250 625.825 C 435.044 626.535, 435.914 626.429, 438.386 624.107 C 441.624 621.066, 442.340 617.750, 440.640 613.681 C 439.231 610.308, 434.122 607, 430.321 607 C 425.029 607, 422.141 600.992, 425.829 597.655 C 429.385 594.437, 435.341 596.534, 437.193 601.657 C 438.918 606.428, 440 605.790, 440 600 C 440 595.345, 438.947 593.658, 437.502 595.996 C 437.114 596.625, 435.818 596.440, 433.993 595.496 C 430.411 593.644, 428.277 593.659, 424.775 595.559 M 471.570 594.886 C 471.269 595.374, 471.917 596.007, 473.011 596.293 C 474.874 596.780, 475 597.680, 475 610.500 C 475 623.320, 474.874 624.220, 473.011 624.707 C 471.917 624.993, 471.269 625.626, 471.570 626.114 C 472.234 627.187, 496.011 627.281, 497.685 626.216 C 499.219 625.240, 500.639 615, 499.240 615 C 498.680 615, 497.927 616.574, 497.566 618.498 C 496.700 623.116, 492.761 625.209, 485.702 624.801 L 480.500 624.500 480.500 618 C 480.500 611.688, 480.578 611.491, 483.189 611.189 C 484.890 610.993, 486.636 611.636, 487.939 612.939 C 489.073 614.073, 490.225 615, 490.500 615 C 490.775 615, 491 612.975, 491 610.500 C 491 608.025, 490.775 606, 490.500 606 C 490.225 606, 489.073 606.927, 487.939 608.061 C 486.636 609.364, 484.890 610.007, 483.189 609.811 C 480.578 609.509, 480.500 609.312, 480.500 603 L 480.500 596.500 486.246 596.200 C 491.262 595.939, 492.309 596.219, 494.496 598.405 C 495.873 599.782, 497 601.830, 497 602.955 C 497 604.080, 497.501 605, 498.114 605 C 499.573 605, 498.257 595.789, 496.652 594.765 C 495.004 593.714, 472.227 593.824, 471.570 594.886 M 529 594.883 C 529 595.369, 529.900 596.002, 531 596.290 C 532.877 596.781, 533 597.654, 533 610.500 C 533 623.346, 532.877 624.219, 531 624.710 C 526.875 625.789, 529.224 627, 535.441 627 C 541.665 627, 545.386 625.477, 540.765 624.821 C 538.677 624.525, 538.500 623.992, 538.500 618 C 538.500 611.504, 538.502 611.500, 541.512 611.204 C 545.791 610.784, 548.996 614.024, 549.015 618.789 C 549.034 623.401, 549.765 624.580, 553.481 625.993 C 557.028 627.341, 560.548 626.619, 561.413 624.366 C 562.332 621.970, 561.055 621.204, 559.558 623.252 C 557.026 626.714, 555.604 624.932, 553.570 615.746 C 553.234 614.231, 552.118 612.466, 551.088 611.823 C 549.338 610.730, 549.420 610.518, 552.359 608.545 C 558.115 604.680, 556.670 598.489, 549.282 595.362 C 545.710 593.850, 529 593.456, 529 594.883 M 588.544 594.929 C 588.229 595.439, 588.990 596.002, 590.235 596.179 C 592.465 596.495, 592.500 596.716, 592.500 610.500 C 592.500 624.284, 592.465 624.505, 590.235 624.821 C 588.990 624.998, 588.229 625.561, 588.544 626.071 C 589.219 627.163, 613.986 627.312, 615.603 626.235 C 617.096 625.240, 618.401 615, 617.034 615 C 616.465 615, 616 615.654, 616 616.453 C 616 622.091, 611.155 625.303, 603.396 624.811 L 598.500 624.500 598.500 618 C 598.500 611.678, 598.574 611.491, 601.207 611.188 C 602.985 610.983, 604.519 611.583, 605.679 612.938 C 608.301 616.001, 609 615.488, 609 610.500 C 609 605.512, 608.301 604.999, 605.679 608.062 C 604.519 609.417, 602.985 610.017, 601.207 609.812 C 598.574 609.509, 598.500 609.322, 598.500 603 L 598.500 596.500 603.841 596.195 C 610.247 595.828, 613.536 597.610, 614.493 601.966 C 614.859 603.635, 615.601 605, 616.141 605 C 617.456 605, 616.070 595.730, 614.611 594.765 C 612.982 593.688, 589.219 593.837, 588.544 594.929 M 646.544 594.929 C 646.229 595.439, 646.990 596.002, 648.235 596.179 C 650.460 596.494, 650.500 596.736, 650.500 609.970 C 650.500 622.930, 650.415 623.483, 648.256 624.560 C 645.226 626.070, 646.463 627, 651.500 627 C 656.551 627, 657.651 626.145, 654.994 624.283 C 653.209 623.033, 653 621.741, 653 611.943 C 653 605.487, 653.401 601, 653.977 601 C 654.514 601, 655.747 602.237, 656.717 603.750 C 662.083 612.117, 672.271 626, 673.046 626 C 673.540 626, 674.070 619.600, 674.223 611.778 C 674.488 598.174, 674.597 597.508, 676.744 596.439 C 679.862 594.886, 678.502 594, 673 594 C 667.499 594, 666.137 594.887, 669.256 596.438 C 671.331 597.470, 671.517 598.306, 671.730 607.527 C 671.992 618.926, 672.840 619.171, 663.009 605 C 659.765 600.325, 656.619 595.938, 656.016 595.250 C 654.748 593.802, 647.394 593.553, 646.544 594.929 M 708.200 595.200 C 706.754 596.646, 706.583 605, 708 605 C 708.550 605, 709 603.875, 709 602.500 C 709 598.800, 712.455 595.818, 716.309 596.191 L 719.500 596.500 719.500 610.500 L 719.500 624.500 716.231 624.815 C 709.791 625.435, 714.281 627, 722.500 627 C 730.719 627, 735.209 625.435, 728.769 624.815 L 725.500 624.500 725.500 610.500 L 725.500 596.500 728.691 596.191 C 732.545 595.818, 736 598.800, 736 602.500 C 736 603.875, 736.450 605, 737 605 C 738.417 605, 738.246 596.646, 736.800 595.200 C 735.989 594.389, 731.356 594, 722.500 594 C 713.644 594, 709.011 594.389, 708.200 595.200 M 538.412 597.369 C 538.123 598.122, 538.024 601.160, 538.193 604.119 C 538.478 609.123, 538.688 609.522, 541.184 609.810 C 542.660 609.981, 545.247 609.406, 546.934 608.534 C 549.564 607.174, 550 606.391, 550 603.031 C 550 600.116, 549.431 598.715, 547.777 597.557 C 545.022 595.626, 539.126 595.508, 538.412 597.369 M 370.240 608 L 368.081 614 372.944 614 L 377.808 614 375.828 608.750 C 374.739 605.862, 373.522 603.162, 373.124 602.750 C 372.725 602.337, 371.428 604.699, 370.240 608" stroke="none" fill="#040404" fill-rule="evenodd"/></svg>